 <svg  version="1.0" xmlns="http://www.w3.org/2000/svg"  width="300.000000pt" height="282.000000pt" viewBox="0 0 300.000000 282.000000"  preserveAspectRatio="xMidYMid meet">  <g transform="translate(0.000000,282.000000) scale(0.100000,-0.100000)" fill="#4a914d" stroke="none"> <path d="M1535 2654 c-11 -2 -47 -9 -80 -16 -94 -17 -82 -11 -598 -352 -164 -109 -300 -203 -302 -209 -8 -21 -56 -529 -51 -534 3 -3 24 8 48 25 24 16 75 50 113 76 39 25 81 53 95 63 32 23 687 454 721 476 72 44 202 26 277 -39 48 -41 92 -136 99 -214 l6 -58 177 119 178 119 -13 42 c-41 131 -94 222 -181 312 -72 74 -158 128 -258 160 -70 23 -192 39 -231 30z"/> <path d="M2520 2161 c-473 -320 -791 -531 -830 -552 -61 -31 -158 -32 -215 -2 -47 25 -107 85 -127 128 -21 43 -41 141 -33 165 3 11 4 20 1 20 -4 0 -85 -52 -181 -117 -121 -80 -175 -122 -175 -135 0 -31 42 -140 73 -193 60 -98 138 -186 206 -230 137 -88 217 -110 375 -102 172 8 174 8 646 332 63 43 158 108 210 143 147 100 132 67 169 371 17 145 30 265 28 267 -1 2 -68 -41 -147 -95z"/> <path d="M1851 838 c-6 -40 -20 -129 -31 -198 -23 -152 -39 -246 -46 -282 -6 -28 -5 -28 44 -28 47 0 51 2 56 28 5 25 71 432 83 515 l6 37 -50 0 -51 0 -11 -72z"/> <path d="M408 730 c-86 -26 -138 -110 -138 -226 0 -57 4 -77 23 -104 38 -57 71 -75 138 -75 32 1 63 5 68 10 5 6 12 29 16 51 l6 42 -46 -5 c-53 -7 -78 10 -95 63 -15 45 2 106 38 135 22 17 36 20 78 16 51 -5 52 -5 58 25 10 51 7 57 -31 67 -44 12 -77 13 -115 1z"/> <path d="M712 727 c-80 -30 -132 -120 -132 -226 1 -115 58 -181 158 -181 101 0 171 61 191 167 18 94 -14 204 -68 232 -31 17 -114 21 -149 8z m102 -99 c20 -28 21 -117 2 -163 -8 -18 -26 -41 -41 -51 -25 -16 -27 -16 -53 3 -40 29 -50 81 -28 148 25 80 86 112 120 63z"/> <path d="M1195 723 c-16 -9 -37 -24 -46 -35 -24 -26 -32 -22 -25 12 5 30 5 30 -39 30 -52 0 -44 20 -80 -198 -13 -84 -28 -164 -31 -178 -6 -25 -6 -25 47 -22 l54 3 8 50 c31 188 56 245 108 245 49 0 56 -31 36 -158 -24 -151 -26 -144 30 -140 l47 3 14 70 c7 39 14 116 15 172 2 97 1 104 -23 127 -33 33 -77 41 -115 19z"/> <path d="M1508 728 c-20 -7 -29 -19 -34 -44 -8 -42 -2 -49 24 -35 56 30 132 3 132 -47 0 -20 -5 -22 -47 -22 -104 0 -175 -44 -189 -116 -9 -47 2 -82 37 -117 27 -26 35 -29 77 -24 34 4 52 12 67 31 22 28 35 25 35 -6 0 -16 6 -19 37 -16 42 3 35 -13 62 149 16 97 14 180 -5 208 -32 45 -128 64 -196 39z m106 -217 c17 -27 -43 -111 -79 -111 -63 0 -59 89 5 113 24 9 68 8 74 -2z"/> <path d="M2091 718 c-32 -17 -52 -39 -75 -78 -27 -49 -31 -64 -31 -135 0 -66 4 -86 24 -118 33 -54 70 -70 152 -65 38 2 73 8 78 13 5 6 12 27 15 49 7 37 6 38 -16 32 -89 -27 -137 -16 -159 36 -18 43 -2 49 114 46 109 -2 117 2 117 60 1 146 -103 222 -219 160z m106 -63 c27 -19 41 -74 22 -86 -8 -5 -40 -9 -71 -9 -64 0 -70 8 -43 60 25 48 56 60 92 35z"/> <path d="M2560 723 c-14 -10 -32 -27 -42 -38 -21 -26 -31 -15 -19 19 10 26 10 26 -38 26 -49 0 -49 0 -55 -37 -32 -214 -58 -376 -66 -413 -5 -25 -12 -62 -15 -83 l-6 -38 53 3 53 3 15 107 c8 60 17 108 21 108 4 0 22 -14 39 -31 28 -29 35 -31 81 -27 57 6 89 30 122 93 29 57 35 180 12 241 -28 74 -100 105 -155 67z m49 -109 c47 -60 -1 -204 -69 -204 -6 0 -22 11 -35 25 -40 39 -31 130 17 183 28 29 62 28 87 -4z"/> </g> </svg> 